<svg xmlns="http://www.w3.org/2000/svg" xml:space="preserve" width="800" height="800" viewBox="0 0 512 512"><path d="M506.372 243.686V57.558c0-22.727-18.49-41.216-41.216-41.216H41.216C18.49 16.342 0 34.831 0 57.558v286.901c0 22.727 18.49 41.216 41.216 41.216h145.477l-18.105 74.655h-22.365c-9.755 0-17.664 7.909-17.664 17.664s7.909 17.664 17.664 17.664l336.336-.005c16.233 0 29.44-13.207 29.44-29.44V261.05c.001-6.4-2.02-12.432-5.627-17.364zM204.941 460.33l18.103-74.652h60.282l18.103 74.652h-96.488zm125.767-51.434v22.264l-11.031-45.485h11.031v23.221zm0-58.549H41.216a5.894 5.894 0 0 1-5.888-5.888v-29.352h295.38v35.24zm0-89.298v18.73H35.328V57.558a5.896 5.896 0 0 1 5.888-5.888h423.94a5.894 5.894 0 0 1 5.888 5.888v174.051H360.148c-16.233 0-29.44 13.207-29.44 29.44zm35.328 54.058H476.67v80.769H366.036v-80.769zm110.636 145.217H366.036v-29.12h110.635v29.12zm0-180.544H366.036v-12.842h110.635v12.842z"/><circle cx="421.349" cy="445.772" r="10.226"/></svg>